<mxfile host="app.diagrams.net" modified="2020-08-07T00:54:55.732Z" agent="5.0 (Windows NT 6.1) AppleWebKit/537.36 (KHTML, like Gecko) Chrome/84.0.4147.105 Safari/537.36" etag="PoqBcc87RTPkfElX2gum" version="13.6.0" type="github">
  <diagram id="1kJSqM8GDoSxhQB1BRtW" name="Page-1">
    <mxGraphModel dx="1353" dy="348" grid="1" gridSize="10" guides="1" tooltips="1" connect="1" arrows="1" fold="1" page="1" pageScale="1" pageWidth="827" pageHeight="1169" math="0" shadow="0">
      <root>
        <mxCell id="0" />
        <mxCell id="1" parent="0" />
        <mxCell id="d-FZoj8-acj8JfPpkjG6-1" value="" style="rounded=1;whiteSpace=wrap;html=1;" vertex="1" parent="1">
          <mxGeometry x="170" y="10" width="120" height="50" as="geometry" />
        </mxCell>
        <mxCell id="d-FZoj8-acj8JfPpkjG6-2" value="" style="endArrow=classic;html=1;fontStyle=1;strokeColor=#000000;" edge="1" parent="1">
          <mxGeometry width="50" height="50" relative="1" as="geometry">
            <mxPoint x="229.5" y="60" as="sourcePoint" />
            <mxPoint x="229.5" y="120" as="targetPoint" />
          </mxGeometry>
        </mxCell>
        <mxCell id="d-FZoj8-acj8JfPpkjG6-5" value="&lt;pre&gt;&lt;font style=&quot;font-size: 11px&quot;&gt;PRESIONAR x&lt;/font&gt;&lt;/pre&gt;" style="text;html=1;resizable=0;autosize=1;align=center;verticalAlign=middle;points=[];fillColor=none;strokeColor=none;rounded=0;" vertex="1" parent="1">
          <mxGeometry x="235" y="70" width="80" height="40" as="geometry" />
        </mxCell>
        <mxCell id="d-FZoj8-acj8JfPpkjG6-6" value="" style="rounded=1;whiteSpace=wrap;html=1;" vertex="1" parent="1">
          <mxGeometry x="158.75" y="120" width="142.5" height="90" as="geometry" />
        </mxCell>
        <mxCell id="d-FZoj8-acj8JfPpkjG6-17" value="&lt;font style=&quot;font-size: 9px&quot;&gt;&lt;b style=&quot;font-size: 9px&quot;&gt;TOTO ES UN PERRO PERDIDO&lt;br&gt;LUEGO DE QUE SU FAMILIA &lt;br&gt;TUVO UN ACCIDENTE,NO SUPO&lt;br&gt;&amp;nbsp;NADA DE ELLOS.BUSCANDO &lt;br&gt;SU CASA LLEGO AQUI EN &lt;br&gt;DONDE OLFATEABA OLOR &lt;br&gt;A COMIDA&lt;/b&gt;&lt;/font&gt;" style="text;html=1;resizable=0;autosize=1;align=left;verticalAlign=middle;points=[];fillColor=none;strokeColor=none;rounded=0;fontSize=9;" vertex="1" parent="1">
          <mxGeometry x="158.75" y="120" width="150" height="80" as="geometry" />
        </mxCell>
        <mxCell id="d-FZoj8-acj8JfPpkjG6-29" value="" style="endArrow=classic;html=1;strokeColor=#000000;fontSize=9;exitX=0.156;exitY=1.011;exitDx=0;exitDy=0;exitPerimeter=0;" edge="1" parent="1" source="d-FZoj8-acj8JfPpkjG6-6">
          <mxGeometry width="50" height="50" relative="1" as="geometry">
            <mxPoint x="130" y="236.66666666666663" as="sourcePoint" />
            <mxPoint x="165" y="260" as="targetPoint" />
            <Array as="points" />
          </mxGeometry>
        </mxCell>
        <mxCell id="d-FZoj8-acj8JfPpkjG6-30" value="" style="endArrow=classic;html=1;strokeColor=#000000;fontSize=9;" edge="1" parent="1">
          <mxGeometry width="50" height="50" relative="1" as="geometry">
            <mxPoint x="280" y="210" as="sourcePoint" />
            <mxPoint x="308.75" y="260" as="targetPoint" />
          </mxGeometry>
        </mxCell>
        <mxCell id="d-FZoj8-acj8JfPpkjG6-32" value="" style="rounded=1;whiteSpace=wrap;html=1;fontSize=9;align=left;" vertex="1" parent="1">
          <mxGeometry x="120" y="260" width="90" height="40" as="geometry" />
        </mxCell>
        <mxCell id="d-FZoj8-acj8JfPpkjG6-33" value="" style="rounded=1;whiteSpace=wrap;html=1;fontSize=9;align=left;" vertex="1" parent="1">
          <mxGeometry x="290" y="260" width="90" height="40" as="geometry" />
        </mxCell>
        <mxCell id="d-FZoj8-acj8JfPpkjG6-36" value="&lt;b&gt;&lt;font style=&quot;font-size: 11px&quot;&gt;ENTRAR&lt;/font&gt;&lt;/b&gt;" style="text;html=1;resizable=0;autosize=1;align=center;verticalAlign=middle;points=[];fillColor=none;strokeColor=none;rounded=0;fontSize=9;" vertex="1" parent="1">
          <mxGeometry x="135" y="270" width="60" height="20" as="geometry" />
        </mxCell>
        <mxCell id="d-FZoj8-acj8JfPpkjG6-37" value="&lt;b&gt;&lt;font style=&quot;font-size: 11px&quot;&gt;IRSE&lt;/font&gt;&lt;/b&gt;" style="text;html=1;resizable=0;autosize=1;align=center;verticalAlign=middle;points=[];fillColor=none;strokeColor=none;rounded=0;fontSize=9;" vertex="1" parent="1">
          <mxGeometry x="315" y="270" width="40" height="20" as="geometry" />
        </mxCell>
        <mxCell id="d-FZoj8-acj8JfPpkjG6-40" value="&lt;font style=&quot;font-size: 11px&quot;&gt;PRESIONAR e&lt;/font&gt;" style="text;html=1;resizable=0;autosize=1;align=center;verticalAlign=middle;points=[];fillColor=none;strokeColor=none;rounded=0;fontSize=9;" vertex="1" parent="1">
          <mxGeometry x="85" y="220" width="90" height="20" as="geometry" />
        </mxCell>
        <mxCell id="d-FZoj8-acj8JfPpkjG6-41" value="&lt;font style=&quot;font-size: 11px&quot;&gt;&lt;font style=&quot;font-size: 11px&quot;&gt;PRESIONAR&lt;/font&gt; i&lt;/font&gt;" style="text;html=1;resizable=0;autosize=1;align=center;verticalAlign=middle;points=[];fillColor=none;strokeColor=none;rounded=0;fontSize=9;" vertex="1" parent="1">
          <mxGeometry x="295" y="220" width="90" height="20" as="geometry" />
        </mxCell>
        <mxCell id="d-FZoj8-acj8JfPpkjG6-42" value="" style="endArrow=classic;html=1;strokeColor=#000000;fontSize=9;" edge="1" parent="1">
          <mxGeometry width="50" height="50" relative="1" as="geometry">
            <mxPoint x="355" y="300" as="sourcePoint" />
            <mxPoint x="375" y="335" as="targetPoint" />
          </mxGeometry>
        </mxCell>
        <mxCell id="d-FZoj8-acj8JfPpkjG6-44" value="" style="rounded=1;whiteSpace=wrap;html=1;fontSize=9;align=left;" vertex="1" parent="1">
          <mxGeometry x="330" y="340" width="90" height="40" as="geometry" />
        </mxCell>
        <mxCell id="d-FZoj8-acj8JfPpkjG6-45" value="&lt;b&gt;&lt;font style=&quot;font-size: 11px&quot;&gt;SE VA&lt;/font&gt;&lt;/b&gt;" style="text;html=1;resizable=0;autosize=1;align=center;verticalAlign=middle;points=[];fillColor=none;strokeColor=none;rounded=0;fontSize=9;" vertex="1" parent="1">
          <mxGeometry x="350" y="350" width="50" height="20" as="geometry" />
        </mxCell>
        <mxCell id="d-FZoj8-acj8JfPpkjG6-47" value="&lt;span style=&quot;font-size: 11px&quot;&gt;BARRA ESPACIADORA PARA VOLVER AL INICIO&lt;/span&gt;" style="text;html=1;strokeColor=none;fillColor=none;align=center;verticalAlign=middle;whiteSpace=wrap;rounded=0;fontSize=9;" vertex="1" parent="1">
          <mxGeometry x="317.78000000000003" y="440" width="129.07" height="30" as="geometry" />
        </mxCell>
        <mxCell id="d-FZoj8-acj8JfPpkjG6-50" value="" style="endArrow=classic;html=1;strokeColor=#000000;fontSize=9;" edge="1" parent="1">
          <mxGeometry width="50" height="50" relative="1" as="geometry">
            <mxPoint x="165" y="300" as="sourcePoint" />
            <mxPoint x="140" y="345" as="targetPoint" />
          </mxGeometry>
        </mxCell>
        <mxCell id="d-FZoj8-acj8JfPpkjG6-51" value="" style="rounded=1;whiteSpace=wrap;html=1;fontSize=9;align=left;" vertex="1" parent="1">
          <mxGeometry x="85" y="350" width="90" height="40" as="geometry" />
        </mxCell>
        <mxCell id="d-FZoj8-acj8JfPpkjG6-52" value="&lt;b&gt;&lt;font style=&quot;font-size: 9px&quot;&gt;COMIENZA A OÍR RUIDOS DE UN PERRO&lt;/font&gt;&lt;/b&gt;" style="text;html=1;strokeColor=none;fillColor=none;align=center;verticalAlign=middle;whiteSpace=wrap;rounded=0;fontSize=9;" vertex="1" parent="1">
          <mxGeometry x="93.75" y="360" width="71.25" height="20" as="geometry" />
        </mxCell>
        <mxCell id="d-FZoj8-acj8JfPpkjG6-53" value="" style="endArrow=classic;html=1;strokeColor=#000000;fontSize=9;" edge="1" parent="1">
          <mxGeometry width="50" height="50" relative="1" as="geometry">
            <mxPoint x="129.5" y="390" as="sourcePoint" />
            <mxPoint x="129.5" y="450" as="targetPoint" />
          </mxGeometry>
        </mxCell>
        <mxCell id="d-FZoj8-acj8JfPpkjG6-54" value="&lt;font style=&quot;font-size: 11px&quot;&gt;CLICK EN LA PANTALLA&lt;/font&gt;" style="text;html=1;strokeColor=none;fillColor=none;align=center;verticalAlign=middle;whiteSpace=wrap;rounded=0;fontSize=9;" vertex="1" parent="1">
          <mxGeometry x="125" y="400" width="80" height="20" as="geometry" />
        </mxCell>
        <mxCell id="d-FZoj8-acj8JfPpkjG6-55" value="" style="rounded=1;whiteSpace=wrap;html=1;fontSize=9;align=left;" vertex="1" parent="1">
          <mxGeometry x="85" y="450" width="90" height="70" as="geometry" />
        </mxCell>
        <mxCell id="d-FZoj8-acj8JfPpkjG6-56" value="&lt;b&gt;EL PERRO LE CUENTA A TOTO QUE EL FUE CAPTURADO Y QUE SE VAYA POR QUE VA A LLEGAR UNA BRUJA&lt;/b&gt;" style="text;html=1;strokeColor=none;fillColor=none;align=center;verticalAlign=middle;whiteSpace=wrap;rounded=0;fontSize=9;" vertex="1" parent="1">
          <mxGeometry x="85" y="475" width="90" height="20" as="geometry" />
        </mxCell>
        <mxCell id="d-FZoj8-acj8JfPpkjG6-57" value="" style="endArrow=classic;html=1;strokeColor=#000000;fontSize=9;" edge="1" parent="1">
          <mxGeometry width="50" height="50" relative="1" as="geometry">
            <mxPoint x="158.75" y="520" as="sourcePoint" />
            <mxPoint x="188.75" y="565" as="targetPoint" />
          </mxGeometry>
        </mxCell>
        <mxCell id="d-FZoj8-acj8JfPpkjG6-58" value="" style="endArrow=classic;html=1;strokeColor=#000000;fontSize=9;" edge="1" parent="1">
          <mxGeometry width="50" height="50" relative="1" as="geometry">
            <mxPoint x="93.75" y="520" as="sourcePoint" />
            <mxPoint x="70" y="570" as="targetPoint" />
          </mxGeometry>
        </mxCell>
        <mxCell id="d-FZoj8-acj8JfPpkjG6-60" value="" style="rounded=1;whiteSpace=wrap;html=1;fontSize=9;align=left;" vertex="1" parent="1">
          <mxGeometry x="158.75" y="565" width="90" height="40" as="geometry" />
        </mxCell>
        <mxCell id="d-FZoj8-acj8JfPpkjG6-61" value="" style="rounded=1;whiteSpace=wrap;html=1;fontSize=9;align=left;" vertex="1" parent="1">
          <mxGeometry x="30" y="570" width="90" height="40" as="geometry" />
        </mxCell>
        <mxCell id="d-FZoj8-acj8JfPpkjG6-63" value="&lt;b&gt;&lt;font style=&quot;font-size: 11px&quot;&gt;SALIR&lt;/font&gt;&lt;/b&gt;" style="text;html=1;strokeColor=none;fillColor=none;align=center;verticalAlign=middle;whiteSpace=wrap;rounded=0;fontSize=9;" vertex="1" parent="1">
          <mxGeometry x="53.75" y="580" width="40" height="20" as="geometry" />
        </mxCell>
        <mxCell id="d-FZoj8-acj8JfPpkjG6-65" value="&lt;b&gt;&lt;font style=&quot;font-size: 11px&quot;&gt;SALVAR AL PERRO&lt;/font&gt;&lt;/b&gt;" style="text;html=1;strokeColor=none;fillColor=none;align=center;verticalAlign=middle;whiteSpace=wrap;rounded=0;fontSize=9;" vertex="1" parent="1">
          <mxGeometry x="163.75" y="575" width="80" height="20" as="geometry" />
        </mxCell>
        <mxCell id="d-FZoj8-acj8JfPpkjG6-66" value="&lt;font style=&quot;font-size: 11px&quot;&gt;PRESIONE i&lt;/font&gt;" style="text;html=1;strokeColor=none;fillColor=none;align=center;verticalAlign=middle;whiteSpace=wrap;rounded=0;fontSize=9;" vertex="1" parent="1">
          <mxGeometry y="530" width="80" height="20" as="geometry" />
        </mxCell>
        <mxCell id="d-FZoj8-acj8JfPpkjG6-67" value="&lt;font style=&quot;font-size: 11px&quot;&gt;PRESIONE s&lt;/font&gt;" style="text;html=1;strokeColor=none;fillColor=none;align=center;verticalAlign=middle;whiteSpace=wrap;rounded=0;fontSize=9;" vertex="1" parent="1">
          <mxGeometry x="178.75" y="530" width="70" height="20" as="geometry" />
        </mxCell>
        <mxCell id="d-FZoj8-acj8JfPpkjG6-68" value="" style="endArrow=classic;html=1;strokeColor=#000000;fontSize=9;" edge="1" parent="1">
          <mxGeometry width="50" height="50" relative="1" as="geometry">
            <mxPoint x="75" y="615" as="sourcePoint" />
            <mxPoint x="75" y="660" as="targetPoint" />
          </mxGeometry>
        </mxCell>
        <mxCell id="d-FZoj8-acj8JfPpkjG6-69" value="" style="endArrow=classic;html=1;strokeColor=#000000;fontSize=9;" edge="1" parent="1">
          <mxGeometry width="50" height="50" relative="1" as="geometry">
            <mxPoint x="203.25" y="605" as="sourcePoint" />
            <mxPoint x="203" y="660" as="targetPoint" />
          </mxGeometry>
        </mxCell>
        <mxCell id="d-FZoj8-acj8JfPpkjG6-70" value="" style="rounded=1;whiteSpace=wrap;html=1;fontSize=9;align=left;" vertex="1" parent="1">
          <mxGeometry x="28.75" y="660" width="90" height="40" as="geometry" />
        </mxCell>
        <mxCell id="d-FZoj8-acj8JfPpkjG6-71" value="&lt;b&gt;&lt;font style=&quot;font-size: 11px&quot;&gt;SE VA&lt;/font&gt;&lt;/b&gt;" style="text;html=1;strokeColor=none;fillColor=none;align=center;verticalAlign=middle;whiteSpace=wrap;rounded=0;fontSize=9;" vertex="1" parent="1">
          <mxGeometry x="53.75" y="670" width="40" height="20" as="geometry" />
        </mxCell>
        <mxCell id="d-FZoj8-acj8JfPpkjG6-72" value="" style="rounded=1;whiteSpace=wrap;html=1;fontSize=9;align=left;" vertex="1" parent="1">
          <mxGeometry x="158.75" y="660" width="90" height="40" as="geometry" />
        </mxCell>
        <mxCell id="d-FZoj8-acj8JfPpkjG6-75" value="&lt;b&gt;&lt;font style=&quot;font-size: 11px&quot;&gt;LO AYUDA&lt;/font&gt;&lt;/b&gt;" style="text;html=1;strokeColor=none;fillColor=none;align=center;verticalAlign=middle;whiteSpace=wrap;rounded=0;fontSize=9;" vertex="1" parent="1">
          <mxGeometry x="175" y="670" width="60" height="20" as="geometry" />
        </mxCell>
        <mxCell id="d-FZoj8-acj8JfPpkjG6-76" value="" style="endArrow=classic;html=1;strokeColor=#000000;fontSize=9;" edge="1" parent="1">
          <mxGeometry width="50" height="50" relative="1" as="geometry">
            <mxPoint x="250" y="680" as="sourcePoint" />
            <mxPoint x="300" y="720" as="targetPoint" />
            <Array as="points">
              <mxPoint x="300" y="680" />
            </Array>
          </mxGeometry>
        </mxCell>
        <mxCell id="d-FZoj8-acj8JfPpkjG6-78" value="" style="rounded=1;whiteSpace=wrap;html=1;fontSize=9;align=left;" vertex="1" parent="1">
          <mxGeometry x="250" y="720" width="130" height="90" as="geometry" />
        </mxCell>
        <mxCell id="d-FZoj8-acj8JfPpkjG6-79" value="&lt;div&gt;&lt;b&gt;ESCUCHAN COMO LA PUERTA SE CIERRA.DEBEN BUSCAR LA LLAVE,LE PREGUNTAN A LA TETERA EMBRUJADA,ELLA LE DICE&amp;nbsp;QUE DEBEN&amp;nbsp;IR AL PATIO Y PREGUNTARLE AL&amp;nbsp;&lt;/b&gt;&lt;/div&gt;&lt;b&gt;PÁJARO&lt;/b&gt;" style="text;html=1;strokeColor=none;fillColor=none;align=center;verticalAlign=middle;whiteSpace=wrap;rounded=0;fontSize=9;" vertex="1" parent="1">
          <mxGeometry x="250" y="727.5" width="132.5" height="75" as="geometry" />
        </mxCell>
        <mxCell id="d-FZoj8-acj8JfPpkjG6-82" value="" style="endArrow=classic;html=1;strokeColor=#000000;fontSize=9;" edge="1" parent="1">
          <mxGeometry width="50" height="50" relative="1" as="geometry">
            <mxPoint x="315.75" y="810" as="sourcePoint" />
            <mxPoint x="315.75" y="860" as="targetPoint" />
          </mxGeometry>
        </mxCell>
        <mxCell id="d-FZoj8-acj8JfPpkjG6-83" value="" style="rounded=1;whiteSpace=wrap;html=1;fontSize=9;align=left;" vertex="1" parent="1">
          <mxGeometry x="265.63" y="860" width="98.75" height="60" as="geometry" />
        </mxCell>
        <mxCell id="d-FZoj8-acj8JfPpkjG6-85" value="&lt;font style=&quot;font-size: 11px&quot;&gt;PRESIONAR p&lt;/font&gt;" style="text;html=1;strokeColor=none;fillColor=none;align=center;verticalAlign=middle;whiteSpace=wrap;rounded=0;fontSize=9;" vertex="1" parent="1">
          <mxGeometry x="223.75" y="820" width="91.25" height="20" as="geometry" />
        </mxCell>
        <mxCell id="d-FZoj8-acj8JfPpkjG6-86" value="&lt;b&gt;EL PAJARO LES DICE QUE DEBEN HABLAR CON EL GATO QUE EL SABE DONDE ESTA LA LLAVE&lt;/b&gt;" style="text;html=1;strokeColor=none;fillColor=none;align=center;verticalAlign=middle;whiteSpace=wrap;rounded=0;fontSize=9;" vertex="1" parent="1">
          <mxGeometry x="261.25" y="880" width="110" height="20" as="geometry" />
        </mxCell>
        <mxCell id="d-FZoj8-acj8JfPpkjG6-87" value="" style="endArrow=classic;html=1;strokeColor=#000000;fontSize=9;" edge="1" parent="1">
          <mxGeometry width="50" height="50" relative="1" as="geometry">
            <mxPoint x="280" y="920" as="sourcePoint" />
            <mxPoint x="260" y="960" as="targetPoint" />
          </mxGeometry>
        </mxCell>
        <mxCell id="d-FZoj8-acj8JfPpkjG6-88" value="" style="endArrow=classic;html=1;strokeColor=#000000;fontSize=9;" edge="1" parent="1">
          <mxGeometry width="50" height="50" relative="1" as="geometry">
            <mxPoint x="355" y="920" as="sourcePoint" />
            <mxPoint x="380" y="960" as="targetPoint" />
          </mxGeometry>
        </mxCell>
        <mxCell id="d-FZoj8-acj8JfPpkjG6-89" value="" style="rounded=1;whiteSpace=wrap;html=1;fontSize=9;align=left;" vertex="1" parent="1">
          <mxGeometry x="364.38" y="960" width="90" height="40" as="geometry" />
        </mxCell>
        <mxCell id="d-FZoj8-acj8JfPpkjG6-90" value="" style="rounded=1;whiteSpace=wrap;html=1;fontSize=9;align=left;" vertex="1" parent="1">
          <mxGeometry x="195" y="960" width="90" height="40" as="geometry" />
        </mxCell>
        <mxCell id="d-FZoj8-acj8JfPpkjG6-91" value="&lt;b&gt;&lt;font style=&quot;font-size: 11px&quot;&gt;NO IR A VER AL GATO&lt;/font&gt;&lt;/b&gt;" style="text;html=1;strokeColor=none;fillColor=none;align=center;verticalAlign=middle;whiteSpace=wrap;rounded=0;fontSize=9;" vertex="1" parent="1">
          <mxGeometry x="365.01" y="970" width="88.75" height="20" as="geometry" />
        </mxCell>
        <mxCell id="d-FZoj8-acj8JfPpkjG6-92" value="&lt;b&gt;&lt;font style=&quot;font-size: 11px&quot;&gt;IR A VER AL GATO&lt;/font&gt;&lt;/b&gt;" style="text;html=1;strokeColor=none;fillColor=none;align=center;verticalAlign=middle;whiteSpace=wrap;rounded=0;fontSize=9;" vertex="1" parent="1">
          <mxGeometry x="205" y="980" width="70.62" as="geometry" />
        </mxCell>
        <mxCell id="d-FZoj8-acj8JfPpkjG6-93" value="&lt;font style=&quot;font-size: 11px&quot;&gt;PRESIONAR G&lt;/font&gt;" style="text;html=1;strokeColor=none;fillColor=none;align=center;verticalAlign=middle;whiteSpace=wrap;rounded=0;fontSize=9;" vertex="1" parent="1">
          <mxGeometry x="175" y="930" width="90" height="20" as="geometry" />
        </mxCell>
        <mxCell id="d-FZoj8-acj8JfPpkjG6-94" value="&lt;font style=&quot;font-size: 11px&quot;&gt;PRESIONAR N&lt;/font&gt;" style="text;html=1;strokeColor=none;fillColor=none;align=center;verticalAlign=middle;whiteSpace=wrap;rounded=0;fontSize=9;" vertex="1" parent="1">
          <mxGeometry x="382.5" y="930" width="77.5" height="20" as="geometry" />
        </mxCell>
        <mxCell id="d-FZoj8-acj8JfPpkjG6-99" value="" style="endArrow=classic;html=1;strokeColor=#000000;fontSize=9;" edge="1" parent="1">
          <mxGeometry width="50" height="50" relative="1" as="geometry">
            <mxPoint x="239.81" y="1000" as="sourcePoint" />
            <mxPoint x="239.81" y="1045" as="targetPoint" />
          </mxGeometry>
        </mxCell>
        <mxCell id="d-FZoj8-acj8JfPpkjG6-101" value="" style="endArrow=classic;html=1;strokeColor=#000000;fontSize=9;" edge="1" parent="1">
          <mxGeometry width="50" height="50" relative="1" as="geometry">
            <mxPoint x="408.88" y="1000" as="sourcePoint" />
            <mxPoint x="408.88" y="1050" as="targetPoint" />
          </mxGeometry>
        </mxCell>
        <mxCell id="d-FZoj8-acj8JfPpkjG6-102" value="" style="rounded=1;whiteSpace=wrap;html=1;fontSize=9;align=left;" vertex="1" parent="1">
          <mxGeometry x="185" y="1045" width="110" height="75" as="geometry" />
        </mxCell>
        <mxCell id="d-FZoj8-acj8JfPpkjG6-103" value="" style="rounded=1;whiteSpace=wrap;html=1;fontSize=9;align=left;" vertex="1" parent="1">
          <mxGeometry x="353.88" y="1050" width="126.12" height="60" as="geometry" />
        </mxCell>
        <mxCell id="d-FZoj8-acj8JfPpkjG6-329" value="&lt;b&gt;&lt;font style=&quot;font-size: 11px&quot;&gt;COMO NO HABLARON CON EL GATO LOS ATRAPO LA BRUJA&lt;/font&gt;&lt;/b&gt;" style="text;html=1;strokeColor=none;fillColor=none;align=center;verticalAlign=middle;whiteSpace=wrap;rounded=0;fontSize=9;" vertex="1" parent="1">
          <mxGeometry x="356.85" y="1070" width="128.81" height="20" as="geometry" />
        </mxCell>
        <mxCell id="d-FZoj8-acj8JfPpkjG6-330" value="" style="endArrow=classic;html=1;strokeColor=#000000;fontSize=9;entryX=0.41;entryY=-0.2;entryDx=0;entryDy=0;entryPerimeter=0;" edge="1" parent="1" target="d-FZoj8-acj8JfPpkjG6-334">
          <mxGeometry width="50" height="50" relative="1" as="geometry">
            <mxPoint x="420" y="1110" as="sourcePoint" />
            <mxPoint x="420" y="1140" as="targetPoint" />
          </mxGeometry>
        </mxCell>
        <mxCell id="d-FZoj8-acj8JfPpkjG6-334" value="&lt;font style=&quot;font-size: 11px&quot;&gt;BARRA ESPACIADORA PARA VOLVER AL INICIO&lt;/font&gt;" style="text;html=1;strokeColor=none;fillColor=none;align=center;verticalAlign=middle;whiteSpace=wrap;rounded=0;fontSize=9;" vertex="1" parent="1">
          <mxGeometry x="356.85" y="1140" width="151.77" height="20" as="geometry" />
        </mxCell>
        <mxCell id="d-FZoj8-acj8JfPpkjG6-335" value="" style="endArrow=classic;html=1;strokeColor=#000000;fontSize=9;" edge="1" parent="1">
          <mxGeometry width="50" height="50" relative="1" as="geometry">
            <mxPoint x="74.5" y="700" as="sourcePoint" />
            <mxPoint x="74.5" y="745" as="targetPoint" />
          </mxGeometry>
        </mxCell>
        <mxCell id="d-FZoj8-acj8JfPpkjG6-339" value="&lt;font style=&quot;font-size: 11px&quot;&gt;BARRA ESPACIADORA PARA VOLVER AL INICIO&lt;/font&gt;" style="text;html=1;strokeColor=none;fillColor=none;align=center;verticalAlign=middle;whiteSpace=wrap;rounded=0;fontSize=9;" vertex="1" parent="1">
          <mxGeometry x="-1.25" y="750" width="150" height="20" as="geometry" />
        </mxCell>
        <mxCell id="d-FZoj8-acj8JfPpkjG6-341" value="&lt;b&gt;&lt;font style=&quot;font-size: 11px&quot;&gt;EL GATO LES DICE QUE DEBEN IR A LA HABITACIÓN AHÍ ENCONTRARAN LA LLAVE&lt;/font&gt;&lt;/b&gt;" style="text;html=1;strokeColor=none;fillColor=none;align=center;verticalAlign=middle;whiteSpace=wrap;rounded=0;fontSize=9;" vertex="1" parent="1">
          <mxGeometry x="183.13" y="1060" width="113.75" height="50" as="geometry" />
        </mxCell>
        <mxCell id="d-FZoj8-acj8JfPpkjG6-342" value="" style="endArrow=classic;html=1;strokeColor=#000000;fontSize=9;" edge="1" parent="1">
          <mxGeometry width="50" height="50" relative="1" as="geometry">
            <mxPoint x="240" y="1120" as="sourcePoint" />
            <mxPoint x="310" y="1250" as="targetPoint" />
            <Array as="points">
              <mxPoint x="240" y="1210" />
              <mxPoint x="310" y="1210" />
            </Array>
          </mxGeometry>
        </mxCell>
        <mxCell id="d-FZoj8-acj8JfPpkjG6-347" value="" style="rounded=1;whiteSpace=wrap;html=1;fontSize=9;align=left;" vertex="1" parent="1">
          <mxGeometry x="248.75" y="1250" width="120" height="60" as="geometry" />
        </mxCell>
        <mxCell id="d-FZoj8-acj8JfPpkjG6-348" value="&lt;b&gt;&lt;font style=&quot;font-size: 11px&quot;&gt;ESCUCHAN UN RUIDO ¿QUE HACEN?&lt;/font&gt;&lt;/b&gt;" style="text;html=1;strokeColor=none;fillColor=none;align=center;verticalAlign=middle;whiteSpace=wrap;rounded=0;fontSize=9;" vertex="1" parent="1">
          <mxGeometry x="245.31" y="1217.5" width="126.87" height="125" as="geometry" />
        </mxCell>
        <mxCell id="d-FZoj8-acj8JfPpkjG6-351" value="&lt;font style=&quot;font-size: 11px&quot;&gt;CLICK EN LA PANTALLA&amp;nbsp;&lt;/font&gt;" style="text;html=1;strokeColor=none;fillColor=none;align=center;verticalAlign=middle;whiteSpace=wrap;rounded=0;" vertex="1" parent="1">
          <mxGeometry x="105" y="1130" width="130" height="70" as="geometry" />
        </mxCell>
        <mxCell id="d-FZoj8-acj8JfPpkjG6-352" value="" style="endArrow=classic;html=1;strokeColor=#000000;fontSize=9;" edge="1" parent="1">
          <mxGeometry width="50" height="50" relative="1" as="geometry">
            <mxPoint x="280" y="1310" as="sourcePoint" />
            <mxPoint x="260" y="1350" as="targetPoint" />
          </mxGeometry>
        </mxCell>
        <mxCell id="d-FZoj8-acj8JfPpkjG6-354" value="" style="endArrow=classic;html=1;strokeColor=#000000;fontSize=9;" edge="1" parent="1">
          <mxGeometry width="50" height="50" relative="1" as="geometry">
            <mxPoint x="350" y="1310" as="sourcePoint" />
            <mxPoint x="370" y="1350" as="targetPoint" />
          </mxGeometry>
        </mxCell>
        <mxCell id="d-FZoj8-acj8JfPpkjG6-356" value="" style="rounded=1;whiteSpace=wrap;html=1;fontSize=9;align=left;" vertex="1" parent="1">
          <mxGeometry x="195" y="1350" width="90" height="40" as="geometry" />
        </mxCell>
        <mxCell id="d-FZoj8-acj8JfPpkjG6-357" value="" style="rounded=1;whiteSpace=wrap;html=1;fontSize=9;align=left;" vertex="1" parent="1">
          <mxGeometry x="350" y="1350" width="90" height="40" as="geometry" />
        </mxCell>
        <mxCell id="d-FZoj8-acj8JfPpkjG6-367" value="" style="edgeStyle=orthogonalEdgeStyle;rounded=0;orthogonalLoop=1;jettySize=auto;html=1;strokeColor=#000000;fontSize=9;" edge="1" parent="1" source="d-FZoj8-acj8JfPpkjG6-358" target="d-FZoj8-acj8JfPpkjG6-365">
          <mxGeometry relative="1" as="geometry" />
        </mxCell>
        <mxCell id="d-FZoj8-acj8JfPpkjG6-358" value="&lt;b&gt;&lt;font style=&quot;font-size: 11px&quot;&gt;SALIR&lt;/font&gt;&lt;/b&gt;" style="text;html=1;resizable=0;autosize=1;align=center;verticalAlign=middle;points=[];fillColor=none;strokeColor=none;rounded=0;fontSize=9;rotation=0;" vertex="1" parent="1">
          <mxGeometry x="213.75" y="1360" width="50" height="20" as="geometry" />
        </mxCell>
        <mxCell id="d-FZoj8-acj8JfPpkjG6-359" value="&lt;b&gt;&lt;font style=&quot;font-size: 11px&quot;&gt;QUEDARSE&lt;/font&gt;&lt;/b&gt;" style="text;html=1;strokeColor=none;fillColor=none;align=center;verticalAlign=middle;whiteSpace=wrap;rounded=0;fontSize=9;" vertex="1" parent="1">
          <mxGeometry x="366" y="1360" width="54" height="20" as="geometry" />
        </mxCell>
        <mxCell id="d-FZoj8-acj8JfPpkjG6-360" value="" style="endArrow=classic;html=1;strokeColor=#000000;fontSize=9;" edge="1" parent="1">
          <mxGeometry width="50" height="50" relative="1" as="geometry">
            <mxPoint x="240" y="1390" as="sourcePoint" />
            <mxPoint x="240" y="1430" as="targetPoint" />
          </mxGeometry>
        </mxCell>
        <mxCell id="d-FZoj8-acj8JfPpkjG6-361" value="" style="endArrow=classic;html=1;strokeColor=#000000;fontSize=9;" edge="1" parent="1">
          <mxGeometry width="50" height="50" relative="1" as="geometry">
            <mxPoint x="400" y="1390" as="sourcePoint" />
            <mxPoint x="400" y="1430" as="targetPoint" />
          </mxGeometry>
        </mxCell>
        <mxCell id="d-FZoj8-acj8JfPpkjG6-362" value="&lt;font style=&quot;font-size: 11px&quot;&gt;PRESIONAR f&lt;/font&gt;" style="text;html=1;strokeColor=none;fillColor=none;align=center;verticalAlign=middle;whiteSpace=wrap;rounded=0;fontSize=9;" vertex="1" parent="1">
          <mxGeometry x="178.75" y="1320" width="85" height="20" as="geometry" />
        </mxCell>
        <mxCell id="d-FZoj8-acj8JfPpkjG6-363" value="&lt;font style=&quot;font-size: 11px&quot;&gt;PRESIONAR q&lt;/font&gt;" style="text;html=1;strokeColor=none;fillColor=none;align=center;verticalAlign=middle;whiteSpace=wrap;rounded=0;fontSize=9;" vertex="1" parent="1">
          <mxGeometry x="356.85" y="1320" width="90" height="20" as="geometry" />
        </mxCell>
        <mxCell id="d-FZoj8-acj8JfPpkjG6-364" value="" style="rounded=1;whiteSpace=wrap;html=1;fontSize=9;align=left;" vertex="1" parent="1">
          <mxGeometry x="195" y="1430" width="90" height="40" as="geometry" />
        </mxCell>
        <mxCell id="d-FZoj8-acj8JfPpkjG6-365" value="&lt;b&gt;&lt;font style=&quot;font-size: 11px&quot;&gt;como salieron los atrapo la bruja&lt;/font&gt;&lt;/b&gt;" style="text;html=1;strokeColor=none;fillColor=none;align=center;verticalAlign=middle;whiteSpace=wrap;rounded=0;fontSize=9;" vertex="1" parent="1">
          <mxGeometry x="200.31" y="1440" width="80" height="20" as="geometry" />
        </mxCell>
        <mxCell id="d-FZoj8-acj8JfPpkjG6-366" value="" style="endArrow=classic;html=1;strokeColor=#000000;fontSize=9;" edge="1" parent="1">
          <mxGeometry width="50" height="50" relative="1" as="geometry">
            <mxPoint x="238.25" y="1470" as="sourcePoint" />
            <mxPoint x="238.25" y="1521" as="targetPoint" />
          </mxGeometry>
        </mxCell>
        <mxCell id="d-FZoj8-acj8JfPpkjG6-368" value="&lt;font style=&quot;font-size: 11px&quot;&gt;BARRA ESPACIADORA PARA VOLVER AL INICIO&lt;/font&gt;" style="text;html=1;strokeColor=none;fillColor=none;align=center;verticalAlign=middle;whiteSpace=wrap;rounded=0;fontSize=9;" vertex="1" parent="1">
          <mxGeometry x="165.31" y="1520" width="150" height="20" as="geometry" />
        </mxCell>
        <mxCell id="d-FZoj8-acj8JfPpkjG6-369" value="" style="rounded=1;whiteSpace=wrap;html=1;fontSize=9;align=left;" vertex="1" parent="1">
          <mxGeometry x="340" y="1430" width="120" height="60" as="geometry" />
        </mxCell>
        <mxCell id="d-FZoj8-acj8JfPpkjG6-370" value="&lt;b&gt;&lt;font style=&quot;font-size: 11px&quot;&gt;DEBEN ESPERAR QUE LA BRUJA SE VAYA&lt;/font&gt;&lt;/b&gt;" style="text;html=1;strokeColor=none;fillColor=none;align=center;verticalAlign=middle;whiteSpace=wrap;rounded=0;fontSize=9;" vertex="1" parent="1">
          <mxGeometry x="348.76" y="1450" width="105" height="20" as="geometry" />
        </mxCell>
        <mxCell id="d-FZoj8-acj8JfPpkjG6-371" value="" style="endArrow=classic;html=1;strokeColor=#000000;fontSize=9;" edge="1" parent="1">
          <mxGeometry width="50" height="50" relative="1" as="geometry">
            <mxPoint x="396.85" y="1490" as="sourcePoint" />
            <mxPoint x="290" y="1670" as="targetPoint" />
            <Array as="points">
              <mxPoint x="397" y="1610" />
              <mxPoint x="290" y="1610" />
            </Array>
          </mxGeometry>
        </mxCell>
        <mxCell id="d-FZoj8-acj8JfPpkjG6-372" value="&lt;font style=&quot;font-size: 11px&quot;&gt;PRESIONAR p&lt;/font&gt;" style="text;html=1;strokeColor=none;fillColor=none;align=center;verticalAlign=middle;whiteSpace=wrap;rounded=0;fontSize=9;" vertex="1" parent="1">
          <mxGeometry x="398.39000000000004" y="1570" width="87.27" height="20" as="geometry" />
        </mxCell>
        <mxCell id="d-FZoj8-acj8JfPpkjG6-373" value="" style="rounded=1;whiteSpace=wrap;html=1;fontSize=9;align=left;" vertex="1" parent="1">
          <mxGeometry x="245.31" y="1670" width="90" height="40" as="geometry" />
        </mxCell>
        <mxCell id="d-FZoj8-acj8JfPpkjG6-374" value="&lt;b&gt;&lt;font style=&quot;font-size: 11px&quot;&gt;¿comer la rica comida?&lt;/font&gt;&lt;/b&gt;" style="text;html=1;strokeColor=none;fillColor=none;align=center;verticalAlign=middle;whiteSpace=wrap;rounded=0;fontSize=9;" vertex="1" parent="1">
          <mxGeometry x="243.75" y="1680" width="90" height="20" as="geometry" />
        </mxCell>
        <mxCell id="d-FZoj8-acj8JfPpkjG6-375" value="" style="endArrow=classic;html=1;strokeColor=#000000;fontSize=9;" edge="1" parent="1">
          <mxGeometry width="50" height="50" relative="1" as="geometry">
            <mxPoint x="258.75" y="1710" as="sourcePoint" />
            <mxPoint x="240" y="1750" as="targetPoint" />
          </mxGeometry>
        </mxCell>
        <mxCell id="d-FZoj8-acj8JfPpkjG6-376" value="" style="endArrow=classic;html=1;strokeColor=#000000;fontSize=9;" edge="1" parent="1">
          <mxGeometry width="50" height="50" relative="1" as="geometry">
            <mxPoint x="322.18" y="1710" as="sourcePoint" />
            <mxPoint x="350" y="1750" as="targetPoint" />
          </mxGeometry>
        </mxCell>
        <mxCell id="d-FZoj8-acj8JfPpkjG6-377" value="" style="rounded=1;whiteSpace=wrap;html=1;fontSize=9;align=left;" vertex="1" parent="1">
          <mxGeometry x="183.13" y="1754" width="90" height="40" as="geometry" />
        </mxCell>
        <mxCell id="d-FZoj8-acj8JfPpkjG6-378" value="" style="rounded=1;whiteSpace=wrap;html=1;fontSize=9;align=left;" vertex="1" parent="1">
          <mxGeometry x="324" y="1750" width="90" height="40" as="geometry" />
        </mxCell>
        <mxCell id="d-FZoj8-acj8JfPpkjG6-379" value="&lt;b&gt;&lt;font style=&quot;font-size: 11px&quot;&gt;COMER&lt;/font&gt;&lt;/b&gt;" style="text;html=1;strokeColor=none;fillColor=none;align=center;verticalAlign=middle;whiteSpace=wrap;rounded=0;fontSize=9;" vertex="1" parent="1">
          <mxGeometry x="350" y="1760" width="40" height="20" as="geometry" />
        </mxCell>
        <mxCell id="d-FZoj8-acj8JfPpkjG6-380" value="&lt;font style=&quot;font-size: 11px&quot;&gt;&lt;b&gt;SALIR&lt;/b&gt;&lt;/font&gt;" style="text;html=1;strokeColor=none;fillColor=none;align=center;verticalAlign=middle;whiteSpace=wrap;rounded=0;fontSize=9;" vertex="1" parent="1">
          <mxGeometry x="208.13" y="1764" width="40" height="20" as="geometry" />
        </mxCell>
        <mxCell id="d-FZoj8-acj8JfPpkjG6-382" value="&lt;font style=&quot;font-size: 11px&quot;&gt;PRESIONAR c&lt;/font&gt;" style="text;html=1;strokeColor=none;fillColor=none;align=center;verticalAlign=middle;whiteSpace=wrap;rounded=0;fontSize=9;" vertex="1" parent="1">
          <mxGeometry x="335.31" y="1710" width="81.24" height="20" as="geometry" />
        </mxCell>
        <mxCell id="d-FZoj8-acj8JfPpkjG6-384" value="&lt;font style=&quot;font-size: 11px&quot;&gt;PRESIONAR n&lt;/font&gt;" style="text;html=1;strokeColor=none;fillColor=none;align=center;verticalAlign=middle;whiteSpace=wrap;rounded=0;fontSize=9;" vertex="1" parent="1">
          <mxGeometry x="145.31" y="1710" width="100" height="20" as="geometry" />
        </mxCell>
        <mxCell id="d-FZoj8-acj8JfPpkjG6-386" value="" style="endArrow=classic;html=1;strokeColor=#000000;fontSize=9;" edge="1" parent="1">
          <mxGeometry width="50" height="50" relative="1" as="geometry">
            <mxPoint x="372.18" y="1790" as="sourcePoint" />
            <mxPoint x="372" y="1840" as="targetPoint" />
          </mxGeometry>
        </mxCell>
        <mxCell id="d-FZoj8-acj8JfPpkjG6-389" value="" style="rounded=1;whiteSpace=wrap;html=1;fontSize=9;align=left;" vertex="1" parent="1">
          <mxGeometry x="314" y="1840" width="116" height="40" as="geometry" />
        </mxCell>
        <mxCell id="d-FZoj8-acj8JfPpkjG6-390" value="&lt;b&gt;&lt;font style=&quot;font-size: 11px&quot;&gt;LA COMIDA ESTABA ENVENENADA&lt;/font&gt;&lt;/b&gt;" style="text;html=1;strokeColor=none;fillColor=none;align=center;verticalAlign=middle;whiteSpace=wrap;rounded=0;fontSize=9;" vertex="1" parent="1">
          <mxGeometry x="315.31" y="1850" width="121.25" height="20" as="geometry" />
        </mxCell>
        <mxCell id="d-FZoj8-acj8JfPpkjG6-391" value="" style="endArrow=classic;html=1;strokeColor=#000000;fontSize=9;" edge="1" parent="1">
          <mxGeometry width="50" height="50" relative="1" as="geometry">
            <mxPoint x="376.26" y="1880" as="sourcePoint" />
            <mxPoint x="376" y="1920" as="targetPoint" />
          </mxGeometry>
        </mxCell>
        <mxCell id="d-FZoj8-acj8JfPpkjG6-392" value="&lt;font style=&quot;font-size: 11px&quot;&gt;BARRA ESPACIADORA PARA VOLVER AL INICIO&lt;/font&gt;" style="text;html=1;strokeColor=none;fillColor=none;align=center;verticalAlign=middle;whiteSpace=wrap;rounded=0;fontSize=9;" vertex="1" parent="1">
          <mxGeometry x="304.38" y="1930" width="150" height="20" as="geometry" />
        </mxCell>
        <mxCell id="d-FZoj8-acj8JfPpkjG6-398" value="" style="endArrow=classic;html=1;strokeColor=#000000;fontSize=9;" edge="1" parent="1">
          <mxGeometry width="50" height="50" relative="1" as="geometry">
            <mxPoint x="235" y="1794" as="sourcePoint" />
            <mxPoint x="285" y="2084" as="targetPoint" />
            <Array as="points">
              <mxPoint x="235" y="1889" />
              <mxPoint x="235" y="1984" />
              <mxPoint x="285" y="1984" />
              <mxPoint x="285" y="2039" />
            </Array>
          </mxGeometry>
        </mxCell>
        <mxCell id="d-FZoj8-acj8JfPpkjG6-399" value="" style="rounded=1;whiteSpace=wrap;html=1;fontSize=9;align=left;" vertex="1" parent="1">
          <mxGeometry x="225" y="2090" width="130" height="70" as="geometry" />
        </mxCell>
        <mxCell id="d-FZoj8-acj8JfPpkjG6-400" value="&lt;b&gt;&lt;font style=&quot;font-size: 22px&quot;&gt;FIN&lt;/font&gt;&lt;/b&gt;" style="text;html=1;strokeColor=none;fillColor=none;align=center;verticalAlign=middle;whiteSpace=wrap;rounded=0;fontSize=9;" vertex="1" parent="1">
          <mxGeometry x="248.13" y="2115" width="81.25" height="20" as="geometry" />
        </mxCell>
        <mxCell id="d-FZoj8-acj8JfPpkjG6-401" value="" style="endArrow=classic;html=1;strokeColor=#000000;fontSize=9;" edge="1" parent="1">
          <mxGeometry width="50" height="50" relative="1" as="geometry">
            <mxPoint x="295" y="2160" as="sourcePoint" />
            <mxPoint x="295" y="2220" as="targetPoint" />
          </mxGeometry>
        </mxCell>
        <mxCell id="d-FZoj8-acj8JfPpkjG6-402" value="" style="rounded=1;whiteSpace=wrap;html=1;fontSize=9;align=left;" vertex="1" parent="1">
          <mxGeometry x="250" y="2220" width="90" height="40" as="geometry" />
        </mxCell>
        <mxCell id="d-FZoj8-acj8JfPpkjG6-403" value="&lt;b&gt;&lt;font style=&quot;font-size: 11px&quot;&gt;CREDITOS&lt;/font&gt;&lt;/b&gt;" style="text;html=1;strokeColor=none;fillColor=none;align=center;verticalAlign=middle;whiteSpace=wrap;rounded=0;fontSize=9;" vertex="1" parent="1">
          <mxGeometry x="274" y="2230" width="40" height="20" as="geometry" />
        </mxCell>
        <mxCell id="d-FZoj8-acj8JfPpkjG6-404" value="&lt;font style=&quot;font-size: 11px&quot;&gt;PRESIONAR t&lt;/font&gt;" style="text;html=1;strokeColor=none;fillColor=none;align=center;verticalAlign=middle;whiteSpace=wrap;rounded=0;fontSize=9;" vertex="1" parent="1">
          <mxGeometry x="285" y="2180" width="100" height="20" as="geometry" />
        </mxCell>
        <mxCell id="d-FZoj8-acj8JfPpkjG6-405" value="&lt;font style=&quot;font-size: 11px&quot;&gt;&lt;b&gt;INICIO&lt;/b&gt;&lt;br&gt;&lt;/font&gt;&lt;b&gt;&lt;font style=&quot;font-size: 11px&quot;&gt;TOTO EL PERRO VALIENTE&lt;/font&gt;&lt;/b&gt;" style="text;html=1;strokeColor=none;fillColor=none;align=center;verticalAlign=middle;whiteSpace=wrap;rounded=0;fontSize=9;" vertex="1" parent="1">
          <mxGeometry x="158.75" y="25" width="148.43" height="20" as="geometry" />
        </mxCell>
        <mxCell id="d-FZoj8-acj8JfPpkjG6-406" value="" style="endArrow=classic;html=1;strokeColor=#000000;fontSize=9;" edge="1" parent="1">
          <mxGeometry width="50" height="50" relative="1" as="geometry">
            <mxPoint x="380" y="380" as="sourcePoint" />
            <mxPoint x="380.5" y="425" as="targetPoint" />
          </mxGeometry>
        </mxCell>
      </root>
    </mxGraphModel>
  </diagram>
</mxfile>
